HIERARCHY
ROOT Model
{
	OFFSET 0 0 0
	CHANNELS 6 Xposition Yposition Zposition Zrotation Xrotation Yrotation
	JOINT Model1
	{
		OFFSET 0 -2.25479 2.99383
		CHANNELS 3 Zrotation Xrotation Yrotation
		JOINT Model2
		{
			OFFSET 12.111 0 0
			CHANNELS 3 Zrotation Xrotation Yrotation
			JOINT Model3
			{
				OFFSET 11.5502 0 0
				CHANNELS 3 Zrotation Xrotation Yrotation
				JOINT Model4
				{
					OFFSET 11.781 0 0
					CHANNELS 3 Zrotation Xrotation Yrotation
					JOINT Model5
					{
						OFFSET 20.0601 0 0
						CHANNELS 3 Zrotation Xrotation Yrotation
						JOINT Model6
						{
							OFFSET 11.1962 0 0
							CHANNELS 3 Zrotation Xrotation Yrotation
							End Site
							{
								OFFSET 0 0 0
							}
						}
					}
					JOINT Model7
					{
						OFFSET 10.8223 0.417534 3.51114
						CHANNELS 3 Zrotation Xrotation Yrotation
						JOINT Model8
						{
							OFFSET -6.07943 0 0
							CHANNELS 3 Zrotation Xrotation Yrotation
							JOINT Model9
							{
								OFFSET -0.277416 10.39 -0.0512447
								CHANNELS 3 Zrotation Xrotation Yrotation
								JOINT Model10
								{
									OFFSET -3.4391 -0.282043 1.86678
									CHANNELS 3 Zrotation Xrotation Yrotation
									JOINT Model11
									{
										OFFSET 13.0269 0 0
										CHANNELS 3 Zrotation Xrotation Yrotation
										JOINT Model12
										{
											OFFSET 10.8866 0 0
											CHANNELS 3 Zrotation Xrotation Yrotation
											JOINT Model13
											{
												OFFSET 16.7317 0 0
												CHANNELS 3 Zrotation Xrotation Yrotation
												JOINT Model14
												{
													OFFSET 11.8292 0 0
													CHANNELS 3 Zrotation Xrotation Yrotation
													JOINT Model15
													{
														OFFSET 4.82751 -3.73566 -0.836517
														CHANNELS 3 Zrotation Xrotation Yrotation
														JOINT Model16
														{
															OFFSET 3.75311 -0.0582886 -0.0186462
															CHANNELS 3 Zrotation Xrotation Yrotation
															JOINT Model17
															{
																OFFSET 2.88688 0.0192337 0.0148029
																CHANNELS 3 Zrotation Xrotation Yrotation
																End Site
																{
																	OFFSET 0 0 0
																}
															}
														}
													}
													JOINT Model18
													{
														OFFSET 9.72197 -3.06458 0.238768
														CHANNELS 3 Zrotation Xrotation Yrotation
														JOINT Model19
														{
															OFFSET 4.61131 0 0
															CHANNELS 3 Zrotation Xrotation Yrotation
															JOINT Model20
															{
																OFFSET 2.8969 -7.62939e-006 0
																CHANNELS 3 Zrotation Xrotation Yrotation
																End Site
																{
																	OFFSET 0 0 0
																}
															}
														}
													}
													JOINT Model21
													{
														OFFSET 9.54431 -0.745064 0.588938
														CHANNELS 3 Zrotation Xrotation Yrotation
														JOINT Model22
														{
															OFFSET 5.33978 0 0
															CHANNELS 3 Zrotation Xrotation Yrotation
															JOINT Model23
															{
																OFFSET 3.03619 7.62939e-006 0
																CHANNELS 3 Zrotation Xrotation Yrotation
																End Site
																{
																	OFFSET 0 0 0
																}
															}
														}
													}
													JOINT Model24
													{
														OFFSET 9.47759 1.51286 0.485121
														CHANNELS 3 Zrotation Xrotation Yrotation
														JOINT Model25
														{
															OFFSET 4.96136 7.62939e-006 0
															CHANNELS 3 Zrotation Xrotation Yrotation
															JOINT Model26
															{
																OFFSET 2.51966 0 0
																CHANNELS 3 Zrotation Xrotation Yrotation
																End Site
																{
																	OFFSET 0 0 0
																}
															}
														}
													}
													JOINT Model27
													{
														OFFSET 9.34247 3.34117 -0.239281
														CHANNELS 3 Zrotation Xrotation Yrotation
														JOINT Model28
														{
															OFFSET 3.2826 2.28882e-005 0
															CHANNELS 3 Zrotation Xrotation Yrotation
															JOINT Model29
															{
																OFFSET 2.1292 0 0
																CHANNELS 3 Zrotation Xrotation Yrotation
																End Site
																{
																	OFFSET 0 0 0
																}
															}
														}
													}
												}
											}
										}
									}
								}
							}
						}
					}
					JOINT Model30
					{
						OFFSET 10.8223 0.4179 -3.51107
						CHANNELS 3 Zrotation Xrotation Yrotation
						JOINT Model31
						{
							OFFSET 6.07943 0 0
							CHANNELS 3 Zrotation Xrotation Yrotation
							JOINT Model32
							{
								OFFSET 0.277416 -10.39 0.0512428
								CHANNELS 3 Zrotation Xrotation Yrotation
								JOINT Model33
								{
									OFFSET 3.4391 0.282043 -1.86678
									CHANNELS 3 Zrotation Xrotation Yrotation
									JOINT Model34
									{
										OFFSET -13.0269 0 0
										CHANNELS 3 Zrotation Xrotation Yrotation
										JOINT Model35
										{
											OFFSET -10.8866 0 0
											CHANNELS 3 Zrotation Xrotation Yrotation
											JOINT Model36
											{
												OFFSET -16.7317 0 0
												CHANNELS 3 Zrotation Xrotation Yrotation
												JOINT Model37
												{
													OFFSET -11.8292 0 0
													CHANNELS 3 Zrotation Xrotation Yrotation
													JOINT Model38
													{
														OFFSET -4.82751 3.73566 0.836517
														CHANNELS 3 Zrotation Xrotation Yrotation
														JOINT Model39
														{
															OFFSET -3.75311 0.0582886 0.0186424
															CHANNELS 3 Zrotation Xrotation Yrotation
															JOINT Model40
															{
																OFFSET -2.88688 -0.0192337 -0.014801
																CHANNELS 3 Zrotation Xrotation Yrotation
																End Site
																{
																	OFFSET 0 0 0
																}
															}
														}
													}
													JOINT Model41
													{
														OFFSET -9.72197 3.06459 -0.23877
														CHANNELS 3 Zrotation Xrotation Yrotation
														JOINT Model42
														{
															OFFSET -4.6113 0 0
															CHANNELS 3 Zrotation Xrotation Yrotation
															JOINT Model43
															{
																OFFSET -2.8969 0 0
																CHANNELS 3 Zrotation Xrotation Yrotation
																End Site
																{
																	OFFSET 0 0 0
																}
															}
														}
													}
													JOINT Model44
													{
														OFFSET -9.5443 0.745064 -0.58894
														CHANNELS 3 Zrotation Xrotation Yrotation
														JOINT Model45
														{
															OFFSET -5.33978 0 0
															CHANNELS 3 Zrotation Xrotation Yrotation
															JOINT Model46
															{
																OFFSET -3.03619 -1.52588e-005 0
																CHANNELS 3 Zrotation Xrotation Yrotation
																End Site
																{
																	OFFSET 0 0 0
																}
															}
														}
													}
													JOINT Model47
													{
														OFFSET -9.47759 -1.51286 -0.485123
														CHANNELS 3 Zrotation Xrotation Yrotation
														JOINT Model48
														{
															OFFSET -4.96136 -1.52588e-005 0
															CHANNELS 3 Zrotation Xrotation Yrotation
															JOINT Model49
															{
																OFFSET -2.51966 0 0
																CHANNELS 3 Zrotation Xrotation Yrotation
																End Site
																{
																	OFFSET 0 0 0
																}
															}
														}
													}
													JOINT Model50
													{
														OFFSET -9.34246 -3.34118 0.239277
														CHANNELS 3 Zrotation Xrotation Yrotation
														JOINT Model51
														{
															OFFSET -3.2826 -1.90735e-005 0
															CHANNELS 3 Zrotation Xrotation Yrotation
															JOINT Model52
															{
																OFFSET -2.1292 0 0
																CHANNELS 3 Zrotation Xrotation Yrotation
																End Site
																{
																	OFFSET 0 0 0
																}
															}
														}
													}
												}
											}
										}
									}
								}
							}
						}
					}
				}
			}
		}
	}
	JOINT Model53
	{
		OFFSET 4.38026 -2.14632 -1.11516
		CHANNELS 3 Zrotation Xrotation Yrotation
		JOINT Model54
		{
			OFFSET 0 0 4.94999
			CHANNELS 3 Zrotation Xrotation Yrotation
			JOINT Model55
			{
				OFFSET 18.5642 0 0
				CHANNELS 3 Zrotation Xrotation Yrotation
				JOINT Model56
				{
					OFFSET 21.2884 0 1.14441e-005
					CHANNELS 3 Zrotation Xrotation Yrotation
					JOINT Model57
					{
						OFFSET 30.261 0 0
						CHANNELS 3 Zrotation Xrotation Yrotation
						JOINT Model58
						{
							OFFSET 11.7259 0 0
							CHANNELS 3 Zrotation Xrotation Yrotation
							JOINT Model59
							{
								OFFSET 10.682 0 0
								CHANNELS 3 Zrotation Xrotation Yrotation
								End Site
								{
									OFFSET 0 0 0
								}
							}
						}
					}
				}
			}
		}
	}
	JOINT Model60
	{
		OFFSET -4.38026 -2.14632 -1.11516
		CHANNELS 3 Zrotation Xrotation Yrotation
		JOINT Model61
		{
			OFFSET 0 0 -4.94999
			CHANNELS 3 Zrotation Xrotation Yrotation
			JOINT Model62
			{
				OFFSET -18.5642 0 0
				CHANNELS 3 Zrotation Xrotation Yrotation
				JOINT Model63
				{
					OFFSET -21.2884 0 -1.14441e-005
					CHANNELS 3 Zrotation Xrotation Yrotation
					JOINT Model64
					{
						OFFSET -30.261 0 0
						CHANNELS 3 Zrotation Xrotation Yrotation
						JOINT Model65
						{
							OFFSET -11.7259 0 0
							CHANNELS 3 Zrotation Xrotation Yrotation
							JOINT Model66
							{
								OFFSET -10.682 0 0
								CHANNELS 3 Zrotation Xrotation Yrotation
								End Site
								{
									OFFSET 0 0 0
								}
							}
						}
					}
				}
			}
		}
	}
}
MOTION
Frames: 4
Frame Time: 0.033333
-54.3214 156.79 28.435 94.1226 -28.7411 102.419 -180 4.29621e-031 -90 3.23387 -1.76831 0.630259 6.49159 -3.49854 1.36076 6.49158 -3.49811 1.36071 8.49693 4.70372e-011 -4.27133e-011 5.34505 45.8621 22.6438 120.092 75.5343 58.4939 9.81418e-006 2.66741e-005 8.42039e-008 -167.277 84.4999 48.8109 89.3126 8.57157 -52.6096 7.37651e-006 2.73815e-005 2.73419e-005 -2.7845 6.10921 -1.3276 1.15502e-007 0.302631 -5.95804e-008 -33.5088 5.44075 -17.9383 -72.0648 39.0385 39.3397 33.3638 2.10362 14.835 0.588947 0.308273 6.35287 -99.6409 81.413 100.35 -0.0181409 2.77856e-005 -0.117315 -0.124139 0.00241113 -0.799296 -79.8382 79.5773 80.5374 -0.000225759 -0.000220916 2.2222e-005 -0.000956203 0.000122903 -2.72834e-005 -66.7416 80.4058 67.2171 -0.000437114 1.59524e-005 -2.72958e-005 -0.000136578 -0.000109282 -5.46079e-005 -6.42159 81.2158 8.01779 -0.000218549 1.69108e-005 0.000212153 0.000901607 -0.000184798 -0.000218549 -59.9282 75.5373 58.5147 9.73555e-006 2.43267e-005 2.49646e-007 -167.277 84.4999 48.8109 -137.786 17.774 -12.1391 6.4877e-006 0.866475 2.91978e-005 -66.9378 -39.4157 0.727882 2.94477e-007 -0.713015 -9.35379e-008 -4.75173 1.20175 -28.3692 -72.0648 39.0385 39.3397 33.3638 2.10361 14.835 0.588946 0.308273 6.35287 -99.6409 81.413 100.35 -0.0181409 3.0014e-005 -0.117315 -0.124139 0.00241105 -0.799296 -79.8382 79.5773 80.5374 -0.000260646 -0.000218627 2.35537e-005 -0.000956226 0.000122914 -2.73434e-005 -66.7416 80.4058 67.2171 -0.000437132 1.48185e-005 -2.73369e-005 -0.000136603 -0.000109368 -5.46635e-005 -6.42159 81.2158 8.01779 -0.000218566 1.94961e-005 0.000212282 0.000901583 -0.000191358 -0.000218586 0.000811311 0.56661 89.91 -23.5606 -2.54735 -20.8462 3.07314e-007 17.2923 -3.35912e-010 99.1273 -11.5548 -0.00872083 1.39219e-007 5.82422 1.7244e-007 -85.1294 -3.54944 -0.19561 -35.4947 -7.52534e-005 -2.27302e-005 -180 -0.566579 -90.09 -39.9155 -11.1761 4.3228 -1.00865e-006 -13.4358 -3.91904e-008 53.147 -11.466 -0.00652446 4.59682e-007 12.3135 3.08324e-007 -59.0552 11.3886 -7.98496 -35.4947 -7.67977e-005 -1.00624e-005 
-53.6544 155.73 26.039 98.7642 -35.0254 108.206 -180 4.29621e-031 -90 2.45742 -1.13272 0.670897 4.92935 -2.23597 1.39013 4.92935 -2.23554 1.39009 8.49693 4.70372e-011 -4.27133e-011 10.5368 52.1923 21.836 120.092 75.5343 58.4939 9.81418e-006 2.66741e-005 8.42039e-008 -167.277 84.4999 48.8109 99.6024 14.2847 -49.3977 7.37651e-006 2.73814e-005 2.73419e-005 -2.60976 9.1753 -1.73708 1.1544e-007 0.242437 -5.95801e-008 -32.1263 5.84155 -20.0967 -72.0648 39.0385 39.3397 33.3638 2.10362 14.835 0.588947 0.308273 6.35287 -99.6409 81.413 100.35 -0.0181409 2.77856e-005 -0.117315 -0.124139 0.00241113 -0.799296 -79.8382 79.5773 80.5374 -0.000225759 -0.000220916 2.2222e-005 -0.000956203 0.000122903 -2.72834e-005 -66.7416 80.4058 67.2171 -0.000437114 1.59524e-005 -2.72958e-005 -0.000136578 -0.000109282 -5.46079e-005 -6.42159 81.2158 8.01779 -0.000218549 1.69108e-005 0.000212153 0.000901607 -0.000184798 -0.000218549 -59.9282 75.5373 58.5147 9.73555e-006 2.43267e-005 2.49646e-007 -167.277 84.4999 48.8109 -145.938 14.2747 -15.2668 6.65412e-006 0.53992 2.91957e-005 -58.3687 -30.0511 0.600881 2.94569e-007 -0.656753 -9.35368e-008 -3.42213 0.813026 -26.7196 -72.0648 39.0385 39.3397 33.3638 2.10361 14.835 0.588946 0.308273 6.35287 -99.6409 81.413 100.35 -0.0181409 3.0014e-005 -0.117315 -0.124139 0.00241105 -0.799296 -79.8382 79.5773 80.5374 -0.000260646 -0.000218627 2.35537e-005 -0.000956226 0.000122914 -2.73434e-005 -66.7416 80.4058 67.2171 -0.000437132 1.48185e-005 -2.73369e-005 -0.000136603 -0.000109368 -5.46635e-005 -6.42159 81.2158 8.01779 -0.000218566 1.94961e-005 0.000212282 0.000901583 -0.000191358 -0.000218586 0.000811311 0.56661 89.91 -21.0022 -5.49561 -26.4201 3.07311e-007 16.7938 -3.35017e-010 100.74 -8.04439 -0.00859452 1.36277e-007 6.79474 1.72763e-007 -89.1264 -6.0928 0.362882 -35.4947 -0.000109476 -2.5087e-005 -180 -0.566579 -90.09 -37.7911 -9.93589 8.76699 -1.00804e-006 -12.5684 -3.90537e-008 53.2036 -9.53627 -0.00657753 4.6379e-007 11.5656 3.07474e-007 -57.3133 10.9052 -7.84059 -35.4951 -9.97199e-005 -1.16867e-005 
-53.9249 153.833 23.4673 101.992 -39.6877 112.322 -180 4.29621e-031 -90 1.52418 -0.495483 0.757123 3.05495 -0.971054 1.52671 3.05494 -0.970618 1.52668 8.49693 4.70372e-011 -4.27133e-011 13.6374 55.9609 20.8497 120.092 75.5343 58.4939 9.81418e-006 2.66741e-005 8.42039e-008 -167.277 84.4999 48.8109 106.552 19.0787 -45.7134 7.37651e-006 2.73814e-005 2.73419e-005 -2.94321 10.532 -1.90188 1.15354e-007 0.160429 -5.95798e-008 -29.1743 5.76139 -21.8875 -72.0648 39.0385 39.3397 33.3638 2.10362 14.835 0.588947 0.308273 6.35287 -99.6409 81.413 100.35 -0.0181409 2.77856e-005 -0.117315 -0.124139 0.00241113 -0.799296 -79.8382 79.5773 80.5374 -0.000225759 -0.000220916 2.2222e-005 -0.000956203 0.000122903 -2.72834e-005 -66.7416 80.4058 67.2171 -0.000437114 1.59524e-005 -2.72958e-005 -0.000136578 -0.000109282 -5.46079e-005 -6.42159 81.2158 8.01779 -0.000218549 1.69108e-005 0.000212153 0.000901607 -0.000184798 -0.000218549 -59.9282 75.5373 58.5147 9.73555e-006 2.43267e-005 2.49646e-007 -167.277 84.4999 48.8109 -149.804 11.3626 -18.2876 6.74732e-006 0.357014 2.9195e-005 -56.7812 -22.3708 0.552255 2.94684e-007 -0.586231 -9.35356e-008 -2.89908 0.698305 -27.0806 -72.0648 39.0385 39.3397 33.3638 2.10361 14.835 0.588946 0.308273 6.35287 -99.6409 81.413 100.35 -0.0181409 3.0014e-005 -0.117315 -0.124139 0.00241105 -0.799296 -79.8382 79.5773 80.5374 -0.000260646 -0.000218627 2.35537e-005 -0.000956226 0.000122914 -2.73434e-005 -66.7416 80.4058 67.2171 -0.000437132 1.48185e-005 -2.73369e-005 -0.000136603 -0.000109368 -5.46635e-005 -6.42159 81.2158 8.01779 -0.000218566 1.94961e-005 0.000212282 0.000901583 -0.000191358 -0.000218586 0.000811311 0.56661 89.91 -18.0403 -11.1123 -29.3792 3.07273e-007 10.5435 -3.26237e-010 98.653 -10.3936 -0.00860986 1.38706e-007 5.99367 1.72493e-007 -95.3692 -6.41727 -0.0925812 -35.4947 -0.000145744 -2.68184e-005 -180 -0.566579 -90.09 -39.6838 -8.47442 11.9287 -1.00706e-006 -11.149 -3.8851e-008 55.3519 -10.039 -0.00668128 4.7111e-007 10.2231 3.06091e-007 -56.0765 9.88317 -7.2589 -35.4947 -0.000113367 -1.20361e-005 
-54.0628 152.67 21.0986 102.378 -42.7536 112.541 -180 4.29621e-031 -90 0.723441 -0.0434915 0.743298 1.44739 -0.0780274 1.4871 1.44739 -0.0775905 1.48709 8.49693 4.70372e-011 -4.27133e-011 16.9943 57.0721 17.3087 120.092 75.5343 58.4939 9.81418e-006 2.66741e-005 8.42039e-008 -167.277 84.4999 48.8109 121.219 7.46758 -44.5275 8.336e-006 -2.00979 2.73587e-005 -34.7834 13.1665 0.341919 1.17016e-007 1.75794 -5.96076e-008 -27.379 5.74532 -23.2812 -72.0648 39.0385 39.3397 33.3638 2.10362 14.835 0.588947 0.308273 6.35287 -99.6409 81.413 100.35 -0.0181409 2.77856e-005 -0.117315 -0.124139 0.00241113 -0.799296 -79.8382 79.5773 80.5374 -0.000225759 -0.000220916 2.2222e-005 -0.000956203 0.000122903 -2.72834e-005 -66.7416 80.4058 67.2171 -0.000437114 1.59524e-005 -2.72958e-005 -0.000136578 -0.000109282 -5.46079e-005 -6.42159 81.2158 8.01779 -0.000218549 1.69108e-005 0.000212153 0.000901607 -0.000184798 -0.000218549 -59.9282 75.5373 58.5147 9.73555e-006 2.43267e-005 2.49646e-007 -167.277 84.4999 48.8109 -149.75 0.915433 -15.0075 6.82879e-006 0.197131 2.91946e-005 -64.0561 -13.0147 0.562755 2.94878e-007 -0.467486 -9.35338e-008 -2.75891 0.64559 -26.3351 -72.0648 39.0385 39.3397 33.3638 2.10361 14.835 0.588946 0.308273 6.35287 -99.6409 81.413 100.35 -0.0181409 3.0014e-005 -0.117315 -0.124139 0.00241105 -0.799296 -79.8382 79.5773 80.5374 -0.000260646 -0.000218627 2.35537e-005 -0.000956226 0.000122914 -2.73434e-005 -66.7416 80.4058 67.2171 -0.000437132 1.48185e-005 -2.73369e-005 -0.000136603 -0.000109368 -5.46635e-005 -6.42159 81.2158 8.01779 -0.000218566 1.94961e-005 0.000212282 0.000901583 -0.000191358 -0.000218586 0.000811311 0.56661 89.91 -18.7485 -14.0971 -30.4261 3.07243e-007 5.29791 -3.22105e-010 96.3703 -14.0089 -0.00867988 1.39432e-007 5.75373 1.72418e-007 -101.188 -7.99833 -0.270762 -35.4947 -0.000182025 -2.79703e-005 -180 -0.566579 -90.09 -42.969 -7.3342 12.5846 -1.00583e-006 -9.3691 -3.86332e-008 56.5146 -12.1931 -0.00682629 4.78469e-007 8.86197 3.04871e-007 -54.8464 8.56939 -6.4413 -35.4948 -0.000112351 -1.0568e-005 
